# xmcd CD database file
#
# Track frame offsets:
#	150
#	19412
#	27790
#	38502
#	56095
#	71992
#	83217
#	92865
#	111405
#	124995
#	139105
#	158425
#	169710
#	185647
#
# Disc length: 2604 seconds
#
# Revision: 1
# Processed by: cddbd v1.5.1PL0 Copyright (c) Steve Scherf et al.
# Submitted via: NeoAudio 9.9.9
#
DISCID=c10a2a0e
DTITLE=Sherrick Brothers - More Adults Only!
DYEAR=1997
DGENRE=Porn Groove
TTITLE0=Roch Lommond
TTITLE1=Dolli Parten's Tits
TTITLE2=Dolly Parton's Hits
TTITLE3=Fuck Off And Die
TTITLE4=What The Fuck Is Going On?
TTITLE5=Rodeo Shag
TTITLE6=One Man Woman
TTITLE7=Back On The Road
TTITLE8=How Did You Change Your Mind?
TTITLE9=Don't Marry Her, Fuck Me
TTITLE10=Rock Lommond (Radio Mix)
TTITLE11=Rodeo Shag (Radio Mix)
TTITLE12=What The Hell Is Going On?
TTITLE13=One Man Woman (Radio Mix)
EXTD=YEAR: 1997
EXTT0=
EXTT1=
EXTT2=
EXTT3=
EXTT4=
EXTT5=
EXTT6=
EXTT7=
EXTT8=
EXTT9=
EXTT10=
EXTT11=
EXTT12=
EXTT13=
PLAYORDER=
